<svg xmlns="http://www.w3.org/2000/svg" width="39" height="26" viewBox="0 0 40 40">
  <path d="M7.1 13.3h16.7v4.6c.7-.7 1.5-1.5 3.2-1.3 2.6.3 3.8 3 3.6 5.6-.1 1.1-.5 2.4-1.3 3.1-.9.9-2.9 1.4-4.6.5-.4-.2-.7-.6-1-1.1V26h-1.9V13.5c-2.3 3.9-4.6 8.4-6.9 12.5H.2l6.9-12.7zM24.3 19c-1.4 1.9-.4 6.7 2.8 5.5 2.4-.9 2-6.6-1.2-6.3-.7.1-1.2.3-1.6.8zm15.4.9h-2c0-1.6-1.9-2-3.1-1.5-2.3 1.1-1.8 7.1 1.6 6.2.8-.2 1.2-.9 1.4-2h2c-.1 2.4-2.1 3.9-4.4 3.7-2.1-.1-3.8-1.8-4-4.2-.2-2.9 1.3-5.9 5-5.5 2.1.2 3.4 1.3 3.5 3.3z"/>
</svg>
