<svg xmlns="http://www.w3.org/2000/svg" viewBox="0 0 40 40">
  <path d="M34.8 6.5a1 1 0 0 0-.9-.1L25 10.7 6.1 1.6a1 1 0 0 0-.9.1c-.3.1-.5.4-.5.8v22.7c0 .4.2.8.6.9l9.8 4.1v8.6c0 .3.2.7.5.8l.5.2.4-.1L34.7 31c.3-.2.6-.5.6-.9V7.3c0-.3-.2-.7-.5-.8zM6.7 24.6V4l16.1 7.7-3.8 1.8-8.4-3.8c-.5-.2-1.1 0-1.3.5-.2.5 0 1.1.5 1.3l6.9 3.2-1 .5c-.3.2-.6.5-.6.9v.8L10.4 15c-.5-.2-1.1 0-1.3.5-.2.5 0 1.1.5 1.3L15 19v3.1l-4.6-1.9c-.5-.2-1.1 0-1.3.5-.2.5 0 1.1.5 1.3l5.4 2.2v3.9l-8.3-3.5zm26.6 4.8L17 37.2V16.7l16.3-7.8v20.5zm-13.7-8.7c-.2-.5 0-1.1.5-1.3l9.5-4.6c.5-.2 1.1 0 1.3.5.2.5 0 1.1-.5 1.3l-9.5 4.6-.4.1c-.4-.1-.8-.3-.9-.6zm0 5.2c-.2-.5 0-1.1.5-1.3l9.5-4.6c.5-.2 1.1 0 1.3.5.2.5 0 1.1-.5 1.3l-9.5 4.6-.4.1c-.4 0-.8-.2-.9-.6zm0 5.3c-.2-.5 0-1.1.5-1.3l9.5-4.6c.5-.2 1.1 0 1.3.5.2.5 0 1.1-.5 1.3l-9.5 4.6-.4.1c-.4-.1-.8-.3-.9-.6z"/>
</svg>
