<svg width="39" height="26" viewBox="0 0 40 40" xmlns="http://www.w3.org/2000/svg">
  <path d="M35.5,10.3c0,5.1,0,10.2,0,15.3c-0.7,0-1.5,0-2.3,0c0,1.5,0,3,0,4.5C32.4,30.1,31.7,30,31,30c0-1.3,0-2.5,0-3.8 c0-0.4,0.1-0.6,0.6-0.5c0.3,0,0.7,0,1,0c0.4,0,0.6-0.2,0.5-0.6c0-1.1,0-2.1,0-3.2c0-3.8,0-7.7,0-11.5c0,0,0.1,0,0.1-0.1 C34,10.3,34.7,10.3,35.5,10.3z M31,30C31,30,31,30,31,30L31,30C31,30,31,30,31,30C31,30,31,30,31,30C31,30,31,30,31,30z M28.8,32.1 c0,0.8,0,1.5,0,2.3c-1.5,0-2.9,0-4.4,0c0,0,0,0,0,0c0-0.6,0-1.1,0-1.7c0-0.4,0.1-0.5,0.6-0.5c0.9,0,1.8,0,2.6,0c1.1,0,1.1,0,1.1-1.1 c0-0.1,0-0.3,0-0.4c-0.1-0.5,0.2-0.6,0.6-0.6c0.6,0,1.1,0,1.7,0c0,0.7,0,1.4,0,2.1C30.3,32.1,29.6,32.1,28.8,32.1z M31.6,10.4 c-0.4,0-0.6-0.1-0.6-0.5c0-0.6,0-1.2,0-1.8c-1.2,0-2.5,0-3.7,0c-0.4,0-0.5,0.1-0.5,0.5c0,1.1,0,2.2,0,3.3c0,0.4-0.1,0.6-0.5,0.5 c-0.6,0-1.2,0-1.9,0c0-1.3,0-2.5,0.1-3.8c0-0.9,0-1.7,0-2.7c0.8,0,1.5,0,2.3,0c0-0.8,0-1.5,0-2.2c-0.7,0-1.5,0-2.3,0 c0,0.7,0,1.4,0,2.1c-0.7,0-1.4,0-2.1,0c0-1.5,0-2.9,0-4.4c2.2,0,4.3,0,6.5,0c0,1.5,0,3,0,4.5c0.8,0,1.5,0,2.2,0c0,0.7,0,1.4,0,2.1 c0.7,0,1.4,0,2.2,0c0,0.8,0,1.6,0,2.3c0,0-0.1,0-0.1,0.1C32.6,10.4,32.1,10.3,31.6,10.4z M24.4,12.4C24.4,12.4,24.4,12.4,24.4,12.4 C24.4,12.4,24.4,12.4,24.4,12.4C24.4,12.4,24.4,12.4,24.4,12.4L24.4,12.4C24.4,12.4,24.4,12.4,24.4,12.4 C24.4,12.4,24.4,12.4,24.4,12.4L24.4,12.4z M24.5,18.6c0,0.4-0.2,0.5-0.5,0.5c-0.5,0-1.1,0-1.6,0c0-0.1-0.1-0.2-0.1-0.4 c0-2.1,0-4.2,0-6.4c0.7,0,1.4,0,2.1,0c0,0.1,0.1,0.2,0.1,0.3C24.5,14.7,24.5,16.6,24.5,18.6z M22.4,19.1 C22.4,19.1,22.4,19.1,22.4,19.1C22.4,19.1,22.4,19.1,22.4,19.1L22.4,19.1z M22.4,19.1C22.4,19.1,22.4,19.1,22.4,19.1L22.4,19.1 C22.4,19.1,22.4,19.1,22.4,19.1z M20.6,21.2c-0.4,0-0.6,0.2-0.6,0.6c0,0.4,0.1,0.8,0,1.1c0,0.2-0.2,0.5-0.4,0.5c-1.3,0-2.7,0-4,0 c0-0.7,0-1.4,0-2.1c1.5,0,2.9,0,4.3,0c0-0.7,0-1.4,0-2.1c0.8,0,1.6,0,2.4,0c-0.1,0.7-0.1,1.4-0.2,2.1C21.7,21.2,21.2,21.3,20.6,21.2 z M15.7,23.4C15.7,23.4,15.7,23.4,15.7,23.4C15.7,23.4,15.7,23.4,15.7,23.4C15.7,23.4,15.7,23.4,15.7,23.4 C15.7,23.4,15.7,23.4,15.7,23.4z M15.7,25.1c0,0.5-0.2,0.6-0.6,0.6c-3.2,0-6.4,0-9.6,0c-0.5,0-0.7,0.1-0.7,0.6c0,1.2,0,2.5,0,3.7 c0.6,0,1.2,0,1.8,0c0.3,0,0.4,0.2,0.4,0.5c0,0.5,0,1,0,1.6c1.2,0,2.5,0,3.7,0c0.4,0,0.6,0,0.6,0.6c-0.1,0.5,0.1,1.1,0.1,1.6 c0.2,0,0.5,0.1,0.7,0.1c3.6,0,7.3,0,10.9,0c0.5,0,1-0.1,1.4-0.1l0,0c0,0.7,0,1.5,0,2.2c-4.4,0-8.7,0-13.1,0c0-0.7-0.1-1.4-0.1-2.1 c-1.4,0-2.8,0-4.3,0c0-0.8,0-1.6,0-2.3c-0.7,0-1.4,0-2.2,0c0-0.7,0-1.4,0-2c-0.7,0-1.5,0-2.2,0c0-2.2,0-4.5,0-6.7c2.4,0,4.9,0,7.3,0 c2,0,3.9,0,5.9,0C15.7,24,15.7,24.5,15.7,25.1z"/>
</svg>