<svg xmlns="http://www.w3.org/2000/svg" width="39" height="26" viewBox="0 0 40 40">
  <path d="M35.5 10.3v15.3h-2.3v4.5L31 30v-3.8c0-.4.1-.6.6-.5h1c.4 0 .6-.2.5-.6V10.4l.1-.1h2.3zM31 30zm-2.2 2.1v2.3h-4.4v-1.7c0-.4.1-.5.6-.5h2.6c1.1 0 1.1 0 1.1-1.1v-.4c-.1-.5.2-.6.6-.6H31v2.1l-2.2-.1zm2.8-21.7c-.4 0-.6-.1-.6-.5V8.1h-3.7c-.4 0-.5.1-.5.5v3.3c0 .4-.1.6-.5.5h-1.9l.1-3.8V5.9h2.3V3.7h-2.3v2.1h-2.1V1.4h6.5v4.5h2.2V8h2.2v2.3l-.1.1c-.6 0-1.1-.1-1.6 0zm-7.2 2zm.1 6.2c0 .4-.2.5-.5.5h-1.6l-.1-.4v-6.4h2.1l.1.3v6zm-2.1.5zm0 0zm-1.8 2.1c-.4 0-.6.2-.6.6v1.1c0 .2-.2.5-.4.5h-4v-2.1h4.3v-2.1h2.4l-.2 2.1-1.5-.1zm-4.9 2.2zm0 1.7c0 .5-.2.6-.6.6H5.5c-.5 0-.7.1-.7.6V30h1.8c.3 0 .4.2.4.5v1.6h3.7c.4 0 .6 0 .6.6-.1.5.1 1.1.1 1.6l.7.1H23l1.4-.1v2.2H11.3l-.1-2.1H6.9v-2.3H4.7v-2H2.5v-6.7h13.2v1.7z"/>
</svg>