<svg width="39" height="26" viewBox="0 0 40 40" xmlns="http://www.w3.org/2000/svg">
  <path d="M17.7,8.7c4.3,0,8.6,0,12.9,0c4.2,0,8,3.1,8.7,7.3c0.7,4.4-1.4,8.3-5.6,9.8c-1.2,0.4-2.5,0.5-3.8,0.7 c-0.5,0.1-0.8,0.2-0.8,0.8c0,0.6-0.2,1.3-0.4,1.9c-0.7,2-2.4,3.1-4.5,3.1c-5.7,0-11.3,0-17,0c-2.9,0-4.8-1.9-4.8-4.7 c0-5.6,0-11.2,0-16.7c0-1.6,0.4-2.1,2-2.1C8.9,8.7,13.3,8.7,17.7,8.7z M23.1,18.2c0-2.2-1.4-3.6-3.5-3.7c-1.3,0-2.4,0.5-3.3,1.3 c-0.4,0.4-0.7,0.3-1.2,0c-0.7-0.5-1.5-0.9-2.3-1.2c-1.8-0.5-4.2,0.4-4.5,2.7c-0.2,1.7,0.4,3.2,1.6,4.3c1.7,1.7,3.6,3.4,5.4,5.1 c0.3,0.3,0.6,0.3,0.9,0c1.7-1.7,3.5-3.4,5.2-5.1C22.5,20.7,23.2,19.6,23.1,18.2z M29.1,17.7c0,0.9,0,1.8,0,2.7 c0,1.6-0.3,1.5,1.5,1.5c1.6,0,2.9-0.7,3.6-2.2c0.7-1.6,0.8-3.2-0.3-4.7c-1-1.4-2.4-1.6-4-1.5c-0.6,0-0.8,0.2-0.8,0.8 C29.1,15.4,29.1,16.5,29.1,17.7z"/>
</svg>