<svg xmlns="http://www.w3.org/2000/svg" viewBox="5 29.98 992 940.02">
  <path fill="#c8ff00" d="M205 468c-71-2-145 43-154 154-4 118 177 348 453 349 275-1 456-231 453-349-16-177-194-186-266-103-17 20-87 118-187 120h-1c-99-2-170-100-187-120-26-31-68-49-111-51Z" style="mix-blend-mode:difference" transform="matrix(1.00956 0 0 1 -9 -1)"/>
  <path fill="#c8ff00" d="M805 30c-90 0-190 74-190 189 0 123 95 194 190 194 111 0 192-86 192-194A192 192 0 0 0 805 30Zm-609 1c90 0 190 74 191 188 0 124-95 195-190 195C87 414 5 329 5 221A192 192 0 0 1 196 31Z" style="mix-blend-mode:normal"/>
</svg>