<svg xmlns="http://www.w3.org/2000/svg" viewBox="0 0 1000 1000"><path fill="#ccfc04" fill-rule="evenodd" d="M257 21.7a334 334 0 0 0-36.5 6.3C136.1 48.1 76.8 105.3 36.1 205.8A498 498 0 0 0 3.5 336c-2.2 18-3.1 64-1.6 80.7 5.1 56.5 22 97.7 51.8 126.4 19.3 18.6 44.5 31.2 76.3 38a133 133 0 0 0 33.5 2.4c20.5 0 24.1-.3 33.3-2.3 42.4-9.5 69.4-29.8 90.4-68.2 8.7-16 17-38.3 28.4-76.4 15-50 20.8-60.6 33.6-60.6 9 0 15.1 6.2 34.3 34.5 24.2 35.7 38 50.3 57.6 61.4a133.6 133.6 0 0 0 77.9 12.7 105.4 105.4 0 0 0 65.6-33.8c10.9-11.2 17-19.1 34.1-44.8 20-29.7 28.5-36.4 38.8-30 9 5.6 13.9 16.9 29 68a371.2 371.2 0 0 0 22.1 60c21.5 44.5 49.7 67.3 95.4 77.1 9 2 13.5 2.3 31.5 2.3 22.9 0 30.3-1 49.8-6.4a139 139 0 0 0 66-39c24.2-25.4 39.7-61.7 46.2-108 2.2-15.6 3-59.5 1.6-78.7-8.2-103.2-48-200.5-105.6-258.8a209.7 209.7 0 0 0-62-45 244.2 244.2 0 0 0-73-22.2 324.3 324.3 0 0 0-69 0 198.3 198.3 0 0 0-70 23.7A369.6 369.6 0 0 0 577 81.9c-35.7 30-51 38.4-72 39.8-25.5 1.7-43.4-7.6-84-43.5-31.7-28.2-43.4-36-66.2-44.6a234.1 234.1 0 0 0-45.6-11.1 381.6 381.6 0 0 0-52.2-.8m-89.5 604A182 182 0 0 0 84 658.3 237 237 0 0 0 44.3 698a181.3 181.3 0 0 0-31.8 78.6c-2 12.8-2 38 0 50.8A177.4 177.4 0 0 0 134 970.8a143 143 0 0 0 54.5 7.7c19 0 23.6-.3 33.4-2.3a178.4 178.4 0 0 0 129.6-105.7A172 172 0 0 0 365 802c0-46.8-16.8-88.8-48.8-122.1a174.2 174.2 0 0 0-102.7-53.4c-9.2-1.4-37.8-1.9-46-.8m618.1.8c-13.3 2.2-30 7-42 12a164.7 164.7 0 0 0-56.7 38.4 165 165 0 0 0-39.2 58.6A169.7 169.7 0 0 0 635 802a173 173 0 0 0 48.9 122.3 176 176 0 0 0 94.1 51.9c14.5 3 50.2 3.3 65.5.4a178.4 178.4 0 0 0 139.8-129.2c4-15.3 5.7-28.3 5.7-45.4 0-38.3-11-72.8-33.3-104a237 237 0 0 0-39.7-39.7 182.1 182.1 0 0 0-72-30.9 262.8 262.8 0 0 0-58.4-.9"/></svg>