<svg width="1000" height="1000" xmlns="http://www.w3.org/2000/svg">
  <path d="M171 468c-47 8-89 38-110 81-23 47-25 105-3 152a495 495 0 0 0 375 264c40 4 81 1 122 2a503 503 0 0 0 391-275c17-42 14-90-2-133-19-44-58-80-107-89-51-8-111 4-146 46-43 54-96 107-167 120-25 1-51 4-75-6-60-21-105-69-143-118-34-37-87-47-135-44Z" fill="#c8ff00"/>
  <path style="fill:#c8ff00" d="M164 33C77 47 3 128 5 217c-1 41 8 82 33 114 36 53 99 87 163 83 48 0 95-19 128-54 38-36 61-88 58-141 2-93-77-181-171-187-17-1-34-1-52 1zm610 0c-87 14-161 95-159 184a188 188 0 0 0 196 196c48 1 95-18 128-53 38-36 61-88 58-141A191 191 0 0 0 774 33z"/>
</svg>
