<svg width="39" height="26" viewBox="0 0 40 40" xmlns="http://www.w3.org/2000/svg">
  <path d="M18.3,22.3c0,4,0,8,0,12c0,0.9-0.2,1.2-1.2,1.2c-1-0.1-2-0.1-3,0c-1,0.1-1.2-0.3-1.2-1.2c0-6.2,0-12.4,0-18.6 c0-1.6,0-3.2,0-4.8c0-0.9-0.3-1.2-1.2-1.2c-0.9,0-1.9,0-2.8,0c-1.3,0-1.4,0.2-1.4,1.4c0,7.6,0,15.2,0,22.8c0,1.5,0,1.5-1.5,1.5 c-1,0-1.9,0-2.9,0c-0.7,0-0.9-0.3-0.9-0.9c0-0.4,0-0.8,0-1.2c0-7.5,0-14.9,0-22.4c0-3.8,2.4-6.3,6.2-6.5c1.7-0.1,3.4-0.1,5.1,0.2 c2.8,0.4,4.8,3,4.9,5.8C18.3,14.4,18.3,18.4,18.3,22.3z M27,20c0,3,0,6,0,9c0,1,0.3,1.4,1.3,1.3c0.9-0.1,1.9-0.1,2.8,0 c1,0.1,1.3-0.4,1.3-1.3c0-0.9-0.1-1.8,0-2.7c0.1-1-0.4-1.2-1.2-1.2c-1.5,0-1.5,0-1.5-1.5c0-0.9,0-1.8,0-2.7c0-0.6,0.2-0.9,0.8-0.9 c2.1,0,4.3,0,6.4,0c0.6,0,0.8,0.2,0.8,0.8c0,3,0,6.1,0,9.1c-0.1,2.8-2.9,5.4-5.7,5.5c-1.3,0-2.6,0-3.9,0c-3.8,0-6.4-2.6-6.4-6.5 c0-6.1,0-12.1,0-18.2c0-3.3,2.1-5.8,5.3-6.2c2-0.2,4-0.2,5.9,0.1c2.9,0.4,4.9,2.9,4.9,5.9c0,1.2,0,2.3,0,3.5c0,0.6-0.2,0.8-0.8,0.8 c-1.2,0-2.5,0-3.7,0c-0.6,0-0.8-0.3-0.8-0.9c0-1,0-2.1,0-3.1c0-0.9-0.4-1.2-1.2-1.2c-1,0-2,0-3,0c-0.9,0-1.2,0.4-1.2,1.3 c0,1.5,0,3,0,4.5C27,17,27,18.5,27,20z"/>
</svg>