<svg width="39" height="26" viewBox="0 0 40 40" xmlns="http://www.w3.org/2000/svg">
  <path d="M25 8.3c.1-.2 0-.3-.2-.3h-3.4c-.2 0-.4.1-.5.3l-8.4 14.2c-1.2 1.9-2.8 2.4-4.4 2.2-2.7-.4-4.1-2.4-4.1-5s2.2-4.8 4.8-4.8h5.3c.2 0 .4-.1.5-.3l1.9-3.3c.1-.2 0-.3-.2-.3H8.8C3.9 11 0 14.9 0 19.7c0 2.3.9 4.8 2.6 6.5 1.6 1.6 3.8 2.2 6.1 2.3 1.3 0 4.9 0 6.6-3C17.2 22.1 25 8.3 25 8.3zm12.4 5c-1.6-1.6-3.8-2.2-6.1-2.3-1.3 0-4.9 0-6.6 3-1.9 3.4-9.7 17.2-9.7 17.2-.1.2 0 .3.2.3h3.4c.2 0 .4-.1.5-.3L27.5 17c1.2-1.9 2.8-2.4 4.4-2.2 2.7.3 4.1 2.3 4.1 4.9 0 2.6-2.2 4.8-4.8 4.8h-5.3c-.2 0-.4.1-.5.3l-1.9 3.3c-.1.2 0 .3.2.3h7.6c4.8 0 8.8-3.9 8.8-8.8-.1-2.2-1-4.7-2.7-6.3zM25 8.3c.1-.2 0-.3-.2-.3h-3.4c-.2 0-.4.1-.5.3l-8.4 14.2c-1.2 1.9-2.8 2.4-4.4 2.2-2.7-.4-4.1-2.4-4.1-5s2.2-4.8 4.8-4.8h5.3c.2 0 .4-.1.5-.3l1.9-3.3c.1-.2 0-.3-.2-.3H8.8C3.9 11 0 14.9 0 19.7c0 2.3.9 4.8 2.6 6.5 1.6 1.6 3.8 2.2 6.1 2.3 1.3 0 4.9 0 6.6-3C17.2 22.1 25 8.3 25 8.3zm12.4 5c-1.6-1.6-3.8-2.2-6.1-2.3-1.3 0-4.9 0-6.6 3-1.9 3.4-9.7 17.2-9.7 17.2-.1.2 0 .3.2.3h3.4c.2 0 .4-.1.5-.3L27.5 17c1.2-1.9 2.8-2.4 4.4-2.2 2.7.3 4.1 2.3 4.1 4.9 0 2.6-2.2 4.8-4.8 4.8h-5.3c-.2 0-.4.1-.5.3l-1.9 3.3c-.1.2 0 .3.2.3h7.6c4.8 0 8.8-3.9 8.8-8.8-.1-2.2-1-4.7-2.7-6.3z"/>
</svg>