<svg width="39" height="26" viewBox="0 0 40 40" xmlns="http://www.w3.org/2000/svg">
  <path d="M25,8.3C25.1,8.1,25,8,24.8,8l-3.4,0c-0.2,0-0.4,0.1-0.5,0.3l-8.4,14.2c-1.2,1.9-2.8,2.4-4.4,2.2C5.4,24.3,4,22.3,4,19.7 c0-2.6,2.2-4.8,4.8-4.8h5.3c0.2,0,0.4-0.1,0.5-0.3l1.9-3.3c0.1-0.2,0-0.3-0.2-0.3H8.8C3.9,11,0,14.9,0,19.7c0,2.3,0.9,4.8,2.6,6.5 c1.6,1.6,3.8,2.2,6.1,2.3c1.3,0,4.9,0,6.6-3C17.2,22.1,25,8.3,25,8.3L25,8.3z M37.4,13.3c-1.6-1.6-3.8-2.2-6.1-2.3 c-1.3,0-4.9,0-6.6,3C22.8,17.4,15,31.2,15,31.2c-0.1,0.2,0,0.3,0.2,0.3l3.4,0c0.2,0,0.4-0.1,0.5-0.3L27.5,17 c1.2-1.9,2.8-2.4,4.4-2.2c2.7,0.3,4.1,2.3,4.1,4.9c0,2.6-2.2,4.8-4.8,4.8h-5.3c-0.2,0-0.4,0.1-0.5,0.3l-1.9,3.3 c-0.1,0.2,0,0.3,0.2,0.3h7.6c4.8,0,8.8-3.9,8.8-8.8C40,17.4,39.1,14.9,37.4,13.3L37.4,13.3zM25,8.3C25.1,8.1,25,8,24.8,8l-3.4,0c-0.2,0-0.4,0.1-0.5,0.3l-8.4,14.2c-1.2,1.9-2.8,2.4-4.4,2.2C5.4,24.3,4,22.3,4,19.7 c0-2.6,2.2-4.8,4.8-4.8h5.3c0.2,0,0.4-0.1,0.5-0.3l1.9-3.3c0.1-0.2,0-0.3-0.2-0.3H8.8C3.9,11,0,14.9,0,19.7c0,2.3,0.9,4.8,2.6,6.5 c1.6,1.6,3.8,2.2,6.1,2.3c1.3,0,4.9,0,6.6-3C17.2,22.1,25,8.3,25,8.3L25,8.3z M37.4,13.3c-1.6-1.6-3.8-2.2-6.1-2.3 c-1.3,0-4.9,0-6.6,3C22.8,17.4,15,31.2,15,31.2c-0.1,0.2,0,0.3,0.2,0.3l3.4,0c0.2,0,0.4-0.1,0.5-0.3L27.5,17 c1.2-1.9,2.8-2.4,4.4-2.2c2.7,0.3,4.1,2.3,4.1,4.9c0,2.6-2.2,4.8-4.8,4.8h-5.3c-0.2,0-0.4,0.1-0.5,0.3l-1.9,3.3 c-0.1,0.2,0,0.3,0.2,0.3h7.6c4.8,0,8.8-3.9,8.8-8.8C40,17.4,39.1,14.9,37.4,13.3L37.4,13.3z"/>
</svg>