<svg width="39" height="26" viewBox="0 0 40 40" xmlns="http://www.w3.org/2000/svg">
  <path d="M37.3,18.9c0,0.7-0.2,1.4-0.6,2c-0.4,0.6-0.9,1.1-1.5,1.4c0.2,0.6,0.2,1.2,0.2,1.9c0,2-0.7,3.8-2.1,5.5 c-1.4,1.7-3.2,3-5.6,4s-4.9,1.5-7.7,1.5c-2.8,0-5.4-0.5-7.7-1.5s-4.2-2.3-5.6-4c-1.4-1.7-2.1-3.6-2.1-5.5c0-0.6,0.1-1.2,0.2-1.8 c-0.7-0.3-1.2-0.8-1.6-1.4c-0.4-0.6-0.6-1.3-0.6-2.1c0-1.1,0.4-2,1.1-2.7c0.7-0.8,1.7-1.1,2.7-1.1c1.1,0,2,0.4,2.8,1.2 c2.8-2,6.1-3,10-3.1l2.2-10.1c0-0.2,0.1-0.3,0.3-0.4c0.2-0.1,0.3-0.1,0.5-0.1l7.1,1.6c0.2-0.5,0.6-0.9,1-1.2c0.5-0.3,1-0.4,1.5-0.4 c0.8,0,1.5,0.3,2,0.8c0.6,0.6,0.9,1.2,0.9,2c0,0.8-0.3,1.5-0.9,2c-0.6,0.6-1.3,0.9-2,0.9c-0.8,0-1.5-0.3-2-0.8s-0.8-1.2-0.8-2 L22.7,4l-2,9.1c3.9,0.1,7.2,1.1,10,3.1c0.7-0.8,1.7-1.2,2.8-1.2c1.1,0,2,0.4,2.7,1.1C36.9,16.9,37.3,17.9,37.3,18.9L37.3,18.9z M10.7,22.8c0,0.8,0.3,1.5,0.8,2c0.6,0.6,1.2,0.9,2,0.9c0.8,0,1.5-0.3,2-0.9c0.6-0.6,0.9-1.3,0.9-2c0-0.8-0.3-1.5-0.9-2 c-0.6-0.6-1.3-0.8-2-0.8c-0.8,0-1.5,0.3-2,0.9C11,21.3,10.7,22,10.7,22.8z M26.4,29.6c0.1-0.1,0.2-0.3,0.2-0.5 c0-0.2-0.1-0.4-0.2-0.5c-0.1-0.1-0.3-0.2-0.5-0.2c-0.2,0-0.4,0.1-0.5,0.2c-0.5,0.5-1.3,0.9-2.3,1.2c-1,0.3-2.1,0.4-3.1,0.4 c-1,0-2.1-0.1-3.1-0.4c-1-0.3-1.8-0.7-2.3-1.2c-0.1-0.1-0.3-0.2-0.5-0.2c-0.2,0-0.4,0.1-0.5,0.2c-0.1,0.1-0.2,0.3-0.2,0.5 c0,0.2,0.1,0.4,0.2,0.5c0.6,0.6,1.3,1,2.3,1.3c1,0.3,1.8,0.5,2.4,0.6c0.6,0.1,1.2,0.1,1.8,0.1s1.2,0,1.8-0.1 c0.6-0.1,1.4-0.2,2.4-0.6C25.1,30.6,25.8,30.2,26.4,29.6L26.4,29.6z M26.3,25.7c0.8,0,1.5-0.3,2-0.9c0.6-0.6,0.8-1.3,0.8-2 c0-0.8-0.3-1.5-0.9-2c-0.6-0.6-1.2-0.9-2-0.9c-0.8,0-1.5,0.3-2,0.8s-0.9,1.2-0.9,2c0,0.8,0.3,1.5,0.9,2 C24.9,25.4,25.5,25.7,26.3,25.7z"/>
</svg>