<svg width="39" height="26" viewBox="0 0 40 40" xmlns="http://www.w3.org/2000/svg">
  <path d="M37.3 18.9a4 4 0 0 1-2.1 3.4c.2.6.2 1.2.2 1.9 0 2-.7 3.8-2.1 5.5-1.4 1.7-3.2 3-5.6 4s-4.9 1.5-7.7 1.5-5.4-.5-7.7-1.5-4.2-2.3-5.6-4a8.62 8.62 0 0 1-2.1-5.5c0-.6.1-1.2.2-1.8-.7-.3-1.2-.8-1.6-1.4-.4-.6-.6-1.3-.6-2.1 0-1.1.4-2 1.1-2.7.7-.8 1.7-1.1 2.7-1.1 1.1 0 2 .4 2.8 1.2 2.8-2 6.1-3 10-3.1l2.2-10.1c0-.2.1-.3.3-.4.2-.1.3-.1.5-.1l7.1 1.6c.2-.5.6-.9 1-1.2.5-.3 1-.4 1.5-.4.8 0 1.5.3 2 .8.6.6.9 1.2.9 2s-.3 1.5-.9 2c-.6.6-1.3.9-2 .9-.8 0-1.5-.3-2-.8s-.8-1.2-.8-2L22.7 4l-2 9.1c3.9.1 7.2 1.1 10 3.1.7-.8 1.7-1.2 2.8-1.2 1.1 0 2 .4 2.7 1.1.7.8 1.1 1.8 1.1 2.8zm-26.6 3.9c0 .8.3 1.5.8 2 .6.6 1.2.9 2 .9s1.5-.3 2-.9c.6-.6.9-1.3.9-2 0-.8-.3-1.5-.9-2-.6-.6-1.3-.8-2-.8-.8 0-1.5.3-2 .9-.5.4-.8 1.1-.8 1.9zm15.7 6.8c.1-.1.2-.3.2-.5s-.1-.4-.2-.5c-.1-.1-.3-.2-.5-.2s-.4.1-.5.2c-.5.5-1.3.9-2.3 1.2-1 .3-2.1.4-3.1.4s-2.1-.1-3.1-.4c-1-.3-1.8-.7-2.3-1.2-.1-.1-.3-.2-.5-.2s-.4.1-.5.2c-.1.1-.2.3-.2.5s.1.4.2.5c.6.6 1.3 1 2.3 1.3a10.87 10.87 0 0 0 4.2.7c.6 0 1.2 0 1.8-.1.6-.1 1.4-.2 2.4-.6.8-.3 1.5-.7 2.1-1.3zm-.1-3.9c.8 0 1.5-.3 2-.9.6-.6.8-1.3.8-2 0-.8-.3-1.5-.9-2a2.8 2.8 0 0 0-4-.1c-.5.5-.9 1.2-.9 2s.3 1.5.9 2c.7.7 1.3 1 2.1 1z"/>
</svg>