<svg xmlns="http://www.w3.org/2000/svg" width="39" height="26" viewBox="0 0 40 40">
  <path d="M13.81 27.42c.12-2.11.27-3.57.3-4.11L13.8 14c-.05-.63-.81-.5-.83 0-.03 3.06-.1 6.11-.17 9.17.07 1.17.13 3.12.2 4.26.02.58.86.5.81-.01zm4.98-.18c.12-2.16.18-3.63.22-4.06L18.8 12.9c-.04-.73-1.03-.6-1 .01-.05 3.2-.18 7.02-.19 10.22.06 1.05.2 3.95.2 4.28.58.69.92-.07.98-.17zM2.7 19.53c.11 1.27.3 2.56.38 3.6-.13 1.12-.31 3-.39 3.45.04.38-.4.49-.41-.01-.07-.95-.2-1.98-.3-3.38.12-.77.3-2.78.42-3.64 0-.06.19-.3.3-.02zm1.5-.65c.1 1.54.3 3.1.4 4.37-.15 1.26-.28 2.73-.38 4.03-.04.44-.42.42-.47 0-.1-1.36-.2-2.5-.36-4.09.1-.88.25-3.01.4-4.3.06-.26.36-.3.42-.01zm1.59-.08c.1 1.58.3 3.02.4 4.4l-.4 4.32c-.03.3-.39.19-.4-.03L5 23.18c.12-1.04.3-3.34.41-4.4.02-.31.37-.39.4.02zm1.6.3c.12 1.41.3 2.77.41 4.12-.2 1.4-.27 2.94-.4 4.3-.05.4-.62.37-.62-.07-.09-1.35-.17-2.74-.3-4.26.08-.84.23-3.23.32-4.19.04-.23.54-.39.59.1ZM9 16.4l.4 6.78c-.14 1.4-.27 3.06-.39 4.37-.1.37-.64.3-.63-.09-.08-1.29-.2-3.16-.3-4.3.13-1.56.25-5.18.3-6.76.15-.47.58-.28.62 0Zm1.5-1.4c.07 2.85.21 5.39.29 8.18-.07 1.38-.2 2.87-.28 4.31.03.39-.7.5-.63-.16-.1-1.68-.17-2.46-.29-4.1.1-2.07.23-6.2.33-8.36.05-.28.61-.3.58.13zm1.7-.75.3 8.99c-.1 1.34-.2 2.97-.32 4.3-.23.5-.83.4-.8-.56l-.3-3.77c.1-2.28.24-6.62.32-8.96.06-.5.78-.49.8 0zm3.2-.05.3 8.9c-.1 1.26-.2 2.86-.3 4.21-.05.57-.82.46-.8 0-.1-1.79-.1-2.26-.2-4.2l.21-9.06c.07-.35.85-.36.79.15zm1.7.4.2 8.61c-.07 1.12-.14 2.88-.18 4.12-.02.54-.89.48-.92-.02l-.2-4.06.2-8.65c-.01-.66.93-.78.9 0zm3.6 8.6c-.06.82-.12 2.77-.2 4.14-.53.87-1.07.27-1.22-.02-.04-1.22-.16-3.82-.18-4.09L19.4 12c.05-.75 1.13-.71 1.1.14zm18.7-.3c.06 1.63-1.19 4.98-4.89 4.9H21.4c-.85-.25-.54-.58-.6-1.97V11.5c0-1.08 3.46-1.3 4.18-1.19 4.17.28 7.5 3.94 7.72 7.99 3.03-1.5 6.83 1.26 6.7 4.6zM1.19 20.85c.05.48.23 1.38.32 2.26-.1.8-.2 1.36-.29 2.1-.02.3-.27.44-.42.08l-.3-2.18.32-2.26c.04-.12.24-.3.37 0z" style="mix-blend-mode:difference"/>
</svg>