<svg width="39" height="26" viewBox="0 0 40 40" xmlns="http://www.w3.org/2000/svg">
  <path d="m13.8 27.4.3-4.2-.3-9.2c0-.1-.1-.2-.1-.3-.1-.1-.2-.1-.3-.1-.1 0-.2 0-.3.1 0 .1-.1.2-.1.3l-.2 9.2.2 4.2c0 .1.1.2.1.3.1.1.2.1.3.1.3 0 .4-.1.4-.4zm5-.5.2-3.7-.2-10.3c0-.2-.1-.3-.2-.4-.1-.1-.2-.1-.3-.1s-.2 0-.3.1c-.1.1-.2.2-.2.4v.1l-.2 10.1s.1 1.4.2 4.1c0 .1 0 .2.1.3.1.1.2.2.4.2.1 0 .2-.1.3-.2.1-.1.2-.2.2-.4v-.2zm-17.6-6 .3 2.2-.3 2.2c0 .1-.1.2-.2.2s-.1-.1-.2-.2l-.3-2.2.3-2.2c0-.1.1-.2.2-.2s.2.1.2.2zm1.5-1.4.4 3.6-.4 3.6c0 .1-.1.2-.2.2s-.2-.1-.2-.2L2 23.2l.4-3.6c0-.1.1-.2.2-.2 0 0 .1 0 .1.1zm1.5-.6.4 4.3-.4 4.2c0 .1-.1.2-.2.2s-.2-.1-.2-.2l-.4-4.2.4-4.3c0-.1.1-.2.2-.2.2 0 .2 0 .2.2zm1.6-.1.4 4.4-.4 4.3c0 .2-.1.2-.2.2s-.2-.1-.2-.2L5 23.2l.4-4.4c0-.2.1-.2.2-.2.1-.1.2 0 .2.2zm1.6.3.4 4.1-.4 4.3c0 .2-.1.3-.3.3-.1 0-.1 0-.2-.1s-.1-.1-.1-.2l-.3-4.3.3-4.1c0-.1 0-.1.1-.2s.1-.1.2-.1c.2 0 .3.1.3.3zM9 16.5l.4 6.7-.4 4.3c0 .1 0 .2-.1.2-.1.1-.1.1-.2.1-.2 0-.3-.1-.3-.3l-.3-4.3.3-6.7c0-.2.1-.3.3-.3.1 0 .1 0 .2.1s.1.1.1.2zm1.5-1.5.3 8.2-.3 4.3c0 .1 0 .2-.1.2-.1.1-.1.1-.2.1-.2 0-.3-.1-.3-.3l-.3-4.3.3-8.2c0-.2.1-.3.3-.3.1 0 .2 0 .2.1.1 0 .1.1.1.2zm1.7-.7.3 8.9-.3 4.2c0 .2-.1.4-.4.4-.2 0-.3-.1-.4-.4l-.3-4.2.3-8.9c0-.1 0-.2.1-.3.1-.1.2-.1.2-.1.1 0 .2 0 .3.1.1.1.2.2.2.3zm6.6 13zm-3.4-13.1.3 8.9-.3 4.2c0 .1 0 .2-.1.3-.1.1-.2.1-.3.1-.1 0-.2 0-.3-.1s-.1-.2-.1-.3l-.2-4.2.2-8.9c0-.1 0-.2.1-.3.1-.1.2-.1.3-.1.1 0 .2 0 .3.1.1.1.1.2.1.3zm1.7.4.2 8.6-.2 4.1c0 .1 0 .2-.1.3-.1.1-.2.1-.3.1-.1 0-.2 0-.3-.1-.1-.1-.1-.2-.2-.3l-.2-4.1.2-8.6c0-.1.1-.3.2-.4.1-.1.2-.1.3-.1.1 0 .2 0 .3.1.1.1.1.2.1.4zm3.6 8.6-.2 4c0 .2-.1.3-.2.4-.1.1-.2.2-.4.2-.1 0-.3-.1-.4-.2-.1-.1-.2-.2-.2-.4l-.1-2-.1-2 .3-11.2c0-.2.1-.3.2-.4.1-.1.2-.1.3-.1.1 0 .2 0 .3.1.2.1.2.2.3.5l.2 11.1zm18.7-.3a5 5 0 0 1-1.4 3.5c-.9 1-2 1.4-3.4 1.4H21.4c-.1 0-.3-.1-.4-.2-.1-.1-.2-.2-.2-.4V11.5c0-.3.2-.5.5-.6a8.03 8.03 0 0 1 8.7 1.7c1.6 1.5 2.5 3.4 2.7 5.7.6-.3 1.2-.4 1.8-.4 1.3 0 2.4.5 3.4 1.5 1 .9 1.5 2.1 1.5 3.5z"/>
</svg>