<svg width="39" height="26" viewBox="0 0 40 40" xmlns="http://www.w3.org/2000/svg">
  <path d="M26.9 26.3c0-.4-.2-.8-.6-1-2.6-1.5-5.6-2.3-9-2.3-1.8 0-3.7.2-5.8.7-.6.1-.8.5-.8 1 0 .3.1.5.3.7.2.2.4.3.7.3.1 0 .3-.1.7-.2 1.8-.4 3.4-.5 4.9-.5 3 0 5.7.7 8 2.1.3.1.5.2.7.2.3 0 .5-.1.7-.3.1-.2.2-.4.2-.7zm1.9-4.3c0-.5-.2-.9-.7-1.2-3.2-1.9-6.8-2.8-11-2.8-2 0-4.1.3-6.1.8-.6.2-1 .6-1 1.3 0 .3.1.6.4.9.2.2.5.4.9.4.1 0 .3-.1.7-.2 1.6-.4 3.3-.7 5-.7 3.7 0 7 .8 9.8 2.5.3.2.6.3.8.3.3 0 .6-.1.9-.4.2-.3.3-.6.3-.9zm2.2-5c0-.6-.3-1.1-.8-1.4-1.7-1-3.6-1.7-5.9-2.2-2.2-.5-4.5-.8-6.9-.8a27 27 0 0 0-7.3.9c-.3.1-.6.3-.8.5-.2.2-.3.6-.3 1s.1.8.4 1c.3.3.6.4 1 .4.1 0 .4-.1.8-.2 1.8-.5 3.8-.7 6.2-.7 2.1 0 4.2.2 6.2.7 2 .5 3.7 1.1 5.1 1.9.3.2.5.2.8.2.4 0 .7-.1 1-.4.3-.1.5-.5.5-.9zm4.1 3c0 2.8-.7 5.4-2.1 7.7-1.4 2.4-3.3 4.2-5.6 5.6-2.4 1.4-4.9 2.1-7.7 2.1s-5.4-.7-7.7-2.1c-2.4-1.4-4.2-3.3-5.6-5.6S4.2 22.8 4.2 20s.7-5.4 2.1-7.7S9.5 8 11.9 6.6s4.9-2.1 7.7-2.1 5.4.7 7.7 2.1 4.2 3.3 5.6 5.6c1.5 2.4 2.2 5 2.2 7.8z"/>
</svg>