<svg width="39" height="26" viewBox="0 0 40 40" xmlns="http://www.w3.org/2000/svg">
  <path d="M32.3 14.4c0 1.2-.4 2.2-1.3 3.1s-1.9 1.3-3.1 1.3-2.2-.4-3.1-1.3c-.9-.9-1.3-1.9-1.3-3.1s.4-2.2 1.3-3.1c.9-.9 1.9-1.3 3.1-1.3s2.2.4 3.1 1.3 1.3 1.9 1.3 3.1zM18.5 27.6c0-1.2-.4-2.3-1.3-3.2-.9-.9-1.9-1.3-3.2-1.3-.3 0-.6 0-1 .1l1.9.8c.9.4 1.6 1 2 1.9.4.9.4 1.8 0 2.7-.4.9-1 1.6-1.9 1.9-.9.4-1.8.4-2.7 0-.3-.1-.6-.2-1.1-.4-.5-.2-.9-.3-1.1-.4.4.7.9 1.3 1.6 1.7a4.38 4.38 0 0 0 5.5-.6c.9-.9 1.3-1.9 1.3-3.2zm14.8-13.2c0-1.5-.5-2.8-1.6-3.8-1-1.1-2.3-1.6-3.8-1.6s-2.8.5-3.9 1.6a5.07 5.07 0 0 0-1.6 3.8c0 1.5.5 2.8 1.6 3.9s2.4 1.6 3.9 1.6 2.8-.5 3.8-1.6c1.1-1.1 1.6-2.4 1.6-3.9zm2.7 0c0 2.2-.8 4.2-2.4 5.7a7.79 7.79 0 0 1-5.7 2.4l-7.8 5.7c-.1 1.5-.8 2.8-1.9 3.9s-2.5 1.6-4.1 1.6c-1.4 0-2.7-.5-3.8-1.4s-1.8-2-2.1-3.4L4 27.3v-7.7l6.9 2.8c.9-.6 2-.9 3.1-.9h.6l5.1-7.3c0-2.2.8-4.1 2.4-5.7s3.5-2.4 5.7-2.4 4.2.8 5.7 2.4c1.7 1.8 2.5 3.7 2.5 5.9z"/>
</svg>