<svg width="39" height="26" viewBox="0 0 40 40" xmlns="http://www.w3.org/2000/svg">
  <path d="M32.3,14.4c0,1.2-0.4,2.2-1.3,3.1s-1.9,1.3-3.1,1.3s-2.2-0.4-3.1-1.3c-0.9-0.9-1.3-1.9-1.3-3.1s0.4-2.2,1.3-3.1 c0.9-0.9,1.9-1.3,3.1-1.3s2.2,0.4,3.1,1.3S32.3,13.2,32.3,14.4z M18.5,27.6c0-1.2-0.4-2.3-1.3-3.2c-0.9-0.9-1.9-1.3-3.2-1.3 c-0.3,0-0.6,0-1,0.1l1.9,0.8c0.9,0.4,1.6,1,2,1.9c0.4,0.9,0.4,1.8,0,2.7c-0.4,0.9-1,1.6-1.9,1.9c-0.9,0.4-1.8,0.4-2.7,0 c-0.3-0.1-0.6-0.2-1.1-0.4c-0.5-0.2-0.9-0.3-1.1-0.4c0.4,0.7,0.9,1.3,1.6,1.7c0.7,0.4,1.5,0.7,2.3,0.7c1.2,0,2.3-0.4,3.2-1.3 C18.1,29.9,18.5,28.9,18.5,27.6L18.5,27.6z M33.3,14.4c0-1.5-0.5-2.8-1.6-3.8C30.7,9.5,29.4,9,27.9,9c-1.5,0-2.8,0.5-3.9,1.6 c-1.1,1.1-1.6,2.3-1.6,3.8c0,1.5,0.5,2.8,1.6,3.9c1.1,1.1,2.4,1.6,3.9,1.6c1.5,0,2.8-0.5,3.8-1.6C32.8,17.2,33.3,15.9,33.3,14.4z M36,14.4c0,2.2-0.8,4.2-2.4,5.7c-1.6,1.6-3.5,2.4-5.7,2.4l-7.8,5.7c-0.1,1.5-0.8,2.8-1.9,3.9s-2.5,1.6-4.1,1.6 c-1.4,0-2.7-0.5-3.8-1.4s-1.8-2-2.1-3.4L4,27.3v-7.7l6.9,2.8c0.9-0.6,2-0.9,3.1-0.9c0.2,0,0.4,0,0.6,0l5.1-7.3 c0-2.2,0.8-4.1,2.4-5.7s3.5-2.4,5.7-2.4c2.2,0,4.2,0.8,5.7,2.4C35.2,10.3,36,12.2,36,14.4z"/>
</svg>