<svg width="39" height="26" viewBox="0 0 40 40" xmlns="http://www.w3.org/2000/svg">
  <path d="M37.6,27.1c0,0-0.3,2.4-1.4,3.5c-1.4,1.4-2.9,1.4-3.6,1.5c-5,0.4-12.4,0.4-12.4,0.4s-9.2-0.1-12.1-0.4 c-0.8-0.1-2.6-0.1-3.9-1.5c-1.1-1.1-1.4-3.5-1.4-3.5s-0.4-2.9-0.4-5.7v-2.7c0-2.9,0.4-5.7,0.4-5.7s0.3-2.4,1.4-3.5 C5.5,8,7,8,7.7,7.9c5-0.4,12.4-0.4,12.4-0.4h0c0,0,7.5,0,12.4,0.4C33.3,8,34.8,8,36.2,9.4c1.1,1.1,1.4,3.5,1.4,3.5s0.4,2.9,0.4,5.7 v2.7C37.9,24.2,37.6,27.1,37.6,27.1z M16.5,14.6l0,9.9l9.6-5L16.5,14.6z"/>
</svg>