<svg xmlns="http://www.w3.org/2000/svg" width="39" height="26" viewBox="0 0 40 40">
  <path d="M17.7 8.7h12.9c4.2 0 8 3.1 8.7 7.3a8.5 8.5 0 0 1-5.6 9.8c-1.2.4-2.5.5-3.8.7-.5.1-.8.2-.8.8 0 .6-.2 1.3-.4 1.9-.7 2-2.4 3.1-4.5 3.1h-17c-2.9 0-4.8-1.9-4.8-4.7V10.9c0-1.6.4-2.1 2-2.1l13.3-.1zm5.4 9.5c0-2.2-1.4-3.6-3.5-3.7-1.3 0-2.4.5-3.3 1.3-.4.4-.7.3-1.2 0a10 10 0 0 0-2.3-1.2c-1.8-.5-4.2.4-4.5 2.7-.2 1.7.4 3.2 1.6 4.3l5.4 5.1c.3.3.6.3.9 0l5.2-5.1c1.1-.9 1.8-2 1.7-3.4zm6-.5v2.7c0 1.6-.3 1.5 1.5 1.5 1.6 0 2.9-.7 3.6-2.2.7-1.6.8-3.2-.3-4.7-1-1.4-2.4-1.6-4-1.5-.6 0-.8.2-.8.8v3.4z"/>
</svg>