<svg width="39" height="26" viewBox="0 0 40 40" xmlns="http://www.w3.org/2000/svg"><path d="M18.3 22.3v12c0 .9-.2 1.2-1.2 1.2h-3c-1 .1-1.2-.3-1.2-1.2V10.9c0-.9-.3-1.2-1.2-1.2H8.9c-1.3 0-1.4.2-1.4 1.4v22.8c0 1.5 0 1.5-1.5 1.5H3.1c-.7 0-.9-.3-.9-.9V10.9c0-3.8 2.4-6.3 6.2-6.5 1.7-.1 3.4-.1 5.1.2 2.8.4 4.8 3 4.9 5.8l-.1 11.9zM27 20v9c0 1 .3 1.4 1.3 1.3h2.8c1 .1 1.3-.4 1.3-1.3v-2.7c.1-1-.4-1.2-1.2-1.2-1.5 0-1.5 0-1.5-1.5v-2.7c0-.6.2-.9.8-.9h6.4c.6 0 .8.2.8.8v9.1c-.1 2.8-2.9 5.4-5.7 5.5h-3.9c-3.8 0-6.4-2.6-6.4-6.5V10.7c0-3.3 2.1-5.8 5.3-6.2 2-.2 4-.2 5.9.1 2.9.4 4.9 2.9 4.9 5.9V14c0 .6-.2.8-.8.8h-3.7c-.6 0-.8-.3-.8-.9v-3.1c0-.9-.4-1.2-1.2-1.2h-3c-.9 0-1.2.4-1.2 1.3v4.5L27 20z"/></svg>